<svg width="24" height="24" viewBox="0 0 24 24" fill="none" xmlns="http://www.w3.org/2000/svg">
    <path d="M22 12.08C21.9884 14.5352 21.0738 16.9004 19.4307 18.7248C17.7876 20.5492 15.5307 21.7054 13.09 21.973V14.8H15.44C15.5434 14.8005 15.6434 14.7632 15.7212 14.695C15.799 14.6268 15.849 14.5326 15.862 14.43L16.116 12.228C16.1252 12.1701 16.1216 12.111 16.1056 12.0547C16.0895 11.9984 16.0614 11.9463 16.0231 11.902C15.9848 11.8577 15.9373 11.8223 15.8839 11.7983C15.8305 11.7743 15.7725 11.7622 15.714 11.763H13.09V9.96296C13.09 9.12696 13.323 8.55596 14.518 8.55596H15.63C15.7404 8.55308 15.8454 8.50712 15.9224 8.42788C15.9994 8.34865 16.0423 8.24244 16.042 8.13196V6.23796C16.0394 6.12751 15.9937 6.02247 15.9146 5.94529C15.8356 5.86812 15.7295 5.82493 15.619 5.82496H13.82C13.3147 5.78882 12.8075 5.8634 12.334 6.04347C11.8605 6.22355 11.4319 6.50478 11.0783 6.86756C10.7247 7.23033 10.4545 7.6659 10.2865 8.14388C10.1186 8.62185 10.057 9.13072 10.106 9.63496V11.751H8.339C8.28383 11.7509 8.22921 11.762 8.17837 11.7834C8.12753 11.8049 8.0815 11.8363 8.04301 11.8758C8.00451 11.9153 7.97432 11.9621 7.95422 12.0135C7.93413 12.0649 7.92453 12.1198 7.926 12.175V14.375C7.926 14.4845 7.96951 14.5895 8.04696 14.667C8.12442 14.7444 8.22947 14.788 8.339 14.788H10.106V21.825C7.83697 21.3873 5.78953 20.1774 4.31176 18.4008C2.83399 16.6243 2.01711 14.3907 2 12.08C2 9.42779 3.05357 6.88425 4.92893 5.00889C6.8043 3.13352 9.34784 2.07996 12 2.07996C14.6522 2.07996 17.1957 3.13352 19.0711 5.00889C20.9464 6.88425 22 9.42779 22 12.08Z" fill="black"/>
</svg>
