<svg width="24" height="24" viewBox="0 0 24 24" fill="none" xmlns="http://www.w3.org/2000/svg">
    <path d="M11.963 2.38196C0.55403 2.62096 -1.81997 17.93 8.85203 21.602C9.35003 21.695 9.53603 21.383 9.53603 21.124V19.444C6.74603 20.045 6.15603 18.127 6.15603 18.127C5.9688 17.5267 5.5706 17.0144 5.03503 16.685C4.13303 16.073 5.10703 16.083 5.10703 16.083C5.42603 16.125 5.73087 16.2406 5.99746 16.4208C6.26405 16.6009 6.48506 16.8407 6.64303 17.121C6.9259 17.6134 7.39076 17.9751 7.93759 18.1282C8.48443 18.2814 9.06954 18.2138 9.56703 17.94C9.61903 17.44 9.84203 16.975 10.2 16.623C7.97003 16.373 5.63603 15.523 5.63603 11.748C5.62222 10.7644 5.99493 9.81463 6.67403 9.10296C6.3599 8.24569 6.39692 7.29908 6.77703 6.46896C6.77703 6.46896 7.61703 6.20896 9.53703 7.50596C11.1806 7.05994 12.9134 7.05994 14.557 7.50596C16.465 6.22996 17.305 6.46796 17.305 6.46796C17.67 7.29596 17.703 8.23096 17.398 9.08196C18.0769 9.79373 18.4492 10.7435 18.435 11.727C18.435 15.513 16.091 16.353 13.861 16.592C14.899 17.142 14.463 20.678 14.525 21.114C14.525 21.373 14.701 21.684 15.22 21.591C25.862 17.951 23.372 2.62096 11.963 2.38196Z" fill="black"/>
</svg>
