<svg width="24" height="24" viewBox="0 0 24 24" fill="none" xmlns="http://www.w3.org/2000/svg">
    <path d="M13.823 12.234C13.807 12.584 13.693 12.922 13.492 13.209C13.2905 13.5055 13.0003 13.7306 12.663 13.852C12.3292 13.9882 11.9618 14.0189 11.61 13.94C11.2566 13.8647 10.934 13.6849 10.684 13.424C10.4363 13.1512 10.2736 12.812 10.216 12.448C10.1508 12.0955 10.1952 11.7315 10.343 11.405C10.487 11.078 10.723 10.799 11.025 10.605C11.332 10.415 11.687 10.314 12.049 10.313C12.526 10.339 12.975 10.545 13.307 10.888C13.4786 11.0665 13.6126 11.2776 13.7013 11.5088C13.7899 11.7399 13.8313 11.9865 13.823 12.234Z" fill="black"/>
    <path d="M17.265 8.00198C17.1512 7.72096 16.9821 7.46568 16.7677 7.2513C16.5533 7.03691 16.298 6.86779 16.017 6.75398C15.734 6.64357 15.4337 6.58431 15.13 6.57898H8.96799C8.35846 6.58135 7.77457 6.82454 7.34356 7.25555C6.91255 7.68655 6.66936 8.27045 6.66699 8.87998V15.159C6.66743 15.4619 6.72793 15.7618 6.84499 16.0413C6.96205 16.3207 7.13336 16.5742 7.34899 16.787C7.77985 17.2145 8.36107 17.4561 8.96799 17.46H15.13C15.5839 17.4571 16.0269 17.3211 16.4043 17.0688C16.7816 16.8166 17.0767 16.4592 17.253 16.041C17.3698 15.7616 17.4303 15.4618 17.431 15.159V8.88898C17.4288 8.5858 17.3726 8.28544 17.265 8.00198ZM14.828 13.443C14.6811 13.808 14.462 14.1396 14.184 14.418C13.904 14.701 13.573 14.928 13.209 15.091C12.8147 15.2564 12.3907 15.3393 11.9631 15.3345C11.5355 15.3297 11.1135 15.2373 10.723 15.063C10.0949 14.7802 9.57969 14.2951 9.25974 13.6851C8.93979 13.0751 8.83355 12.3755 8.95799 11.698C9.0782 11.1002 9.36568 10.5488 9.78699 10.108C10.217 9.67703 10.764 9.38175 11.3602 9.25874C11.9564 9.13573 12.5756 9.1904 13.141 9.41598C13.708 9.64598 14.191 10.044 14.525 10.557C14.8625 11.0516 15.0459 11.6352 15.052 12.234C15.066 12.649 14.989 13.061 14.828 13.443ZM15.9 8.62598C15.9094 8.70391 15.9022 8.78295 15.8788 8.85788C15.8554 8.93282 15.8164 9.00193 15.7643 9.06067C15.7122 9.11941 15.6483 9.16643 15.5767 9.19864C15.5051 9.23084 15.4275 9.24749 15.349 9.24749C15.2705 9.24749 15.1929 9.23084 15.1213 9.19864C15.0497 9.16643 14.9858 9.11941 14.9337 9.06067C14.8816 9.00193 14.8426 8.93282 14.8192 8.85788C14.7958 8.78295 14.7886 8.70391 14.798 8.62598C14.7863 8.5468 14.7918 8.46603 14.8141 8.38917C14.8364 8.3123 14.875 8.24115 14.9273 8.18055C14.9796 8.11996 15.0443 8.07134 15.1171 8.03802C15.1899 8.00469 15.269 7.98744 15.349 7.98744C15.429 7.98744 15.5081 8.00469 15.5809 8.03802C15.6537 8.07134 15.7184 8.11996 15.7707 8.18055C15.823 8.24115 15.8616 8.3123 15.8839 8.38917C15.9062 8.46603 15.9117 8.5468 15.9 8.62598Z" fill="black"/>
    <path d="M16.875 2.25H7.125C5.83207 2.25 4.59209 2.76361 3.67785 3.67785C2.76361 4.59209 2.25 5.83207 2.25 7.125V16.875C2.25 17.5152 2.3761 18.1491 2.62109 18.7406C2.86608 19.332 3.22517 19.8695 3.67785 20.3221C4.59209 21.2364 5.83207 21.75 7.125 21.75H16.875C17.5152 21.75 18.1491 21.6239 18.7406 21.3789C19.332 21.1339 19.8695 20.7748 20.3221 20.3221C20.7748 19.8695 21.1339 19.332 21.3789 18.7406C21.6239 18.1491 21.75 17.5152 21.75 16.875V7.125C21.75 6.48481 21.6239 5.85088 21.3789 5.25942C21.1339 4.66796 20.7748 4.13054 20.3221 3.67785C19.8695 3.22517 19.332 2.86608 18.7406 2.62109C18.1491 2.3761 17.5152 2.25 16.875 2.25ZM18.942 15.062C18.952 15.572 18.855 16.081 18.659 16.553C18.2634 17.5003 17.5103 18.2534 16.563 18.649C16.09 18.845 15.583 18.941 15.071 18.932H9.075C8.56365 18.9406 8.05593 18.8446 7.583 18.65C7.11422 18.4527 6.68729 18.168 6.325 17.811C5.9663 17.4503 5.68162 17.023 5.487 16.553C5.28127 16.0825 5.17505 15.5745 5.175 15.061V9.018C5.16671 8.50658 5.26301 7.99886 5.458 7.526C5.84476 6.57473 6.59109 5.81439 7.535 5.41C8.02534 5.21936 8.54918 5.1299 9.075 5.147H15.12C15.6268 5.14246 16.1294 5.2393 16.5982 5.43181C17.067 5.62432 17.4926 5.90862 17.85 6.268C18.207 6.63 18.491 7.058 18.688 7.526C18.883 7.999 18.98 8.506 18.971 9.018L18.942 15.062Z" fill="black"/>
</svg>
