<svg width="201" height="47" viewBox="0 0 201 47" fill="none" xmlns="http://www.w3.org/2000/svg">
    <path d="M114.413 0C116.058 0 117.462 0.198495 118.624 0.595484C119.815 0.964117 120.793 1.54542 121.559 2.3394C122.325 3.13338 122.878 4.14003 123.218 5.35935C123.558 6.55032 123.728 7.96814 123.728 9.61281V20.4166C123.728 20.8419 123.813 21.1539 123.984 21.3523C124.182 21.5508 124.437 21.6501 124.749 21.6501C125.089 21.6501 125.472 21.5508 125.898 21.3523C126.351 21.1539 126.791 20.8986 127.216 20.5867V21.0546C126.876 21.3665 126.465 21.6359 125.983 21.8628C125.529 22.0896 125.047 22.2598 124.537 22.3732C124.026 22.4866 123.53 22.5433 123.048 22.5433C121.8 22.5433 120.822 22.2172 120.113 21.565C119.404 20.8845 119.05 19.7927 119.05 18.2899C119.05 17.7227 119.05 17.3116 119.05 17.0564C119.05 16.7728 119.05 16.5601 119.05 16.4183C119.05 16.2766 119.05 16.1206 119.05 15.9505L118.709 15.6953C118.171 16.7728 117.518 17.7369 116.753 18.5876C116.015 19.4383 115.179 20.1614 114.243 20.7569C113.336 21.324 112.4 21.7635 111.436 22.0754C110.472 22.3874 109.508 22.5433 108.544 22.5433C107.494 22.5433 106.544 22.359 105.694 21.9904C104.843 21.6501 104.163 21.1397 103.652 20.4591C103.142 19.7502 102.887 18.8853 102.887 17.8645C102.887 15.4542 104.262 13.6252 107.012 12.3776C109.763 11.1015 113.775 10.4635 119.05 10.4635C119.05 8.05321 118.865 6.15333 118.497 4.76387C118.128 3.34605 117.49 2.32522 116.583 1.70138C115.675 1.07754 114.428 0.765623 112.84 0.765623C111.79 0.765623 110.855 0.864871 110.032 1.06337C109.238 1.2335 108.614 1.44618 108.161 1.70138C107.735 1.95659 107.523 2.18344 107.523 2.38194C107.523 2.52372 107.65 2.67968 107.906 2.84982C108.189 2.9916 108.685 3.20427 109.394 3.48783C110.699 3.99825 111.351 4.72134 111.351 5.6571C111.351 6.50779 110.982 7.15998 110.245 7.61369C109.508 8.03903 108.614 8.2517 107.565 8.2517C106.544 8.2517 105.665 8.02485 104.928 7.57115C104.219 7.11745 103.865 6.46525 103.865 5.61456C103.865 4.93401 104.148 4.26764 104.716 3.61544C105.311 2.93489 106.091 2.32522 107.055 1.78645C108.047 1.24768 109.167 0.822336 110.415 0.510416C111.691 0.170139 113.024 0 114.413 0ZM119.05 10.9739C116.356 10.9739 114.13 11.2717 112.372 11.8671C110.614 12.4343 109.309 13.2141 108.459 14.2065C107.608 15.199 107.183 16.3049 107.183 17.5242C107.183 18.2615 107.324 18.8712 107.608 19.3532C107.92 19.8069 108.331 20.1472 108.841 20.3741C109.352 20.6009 109.933 20.7143 110.585 20.7143C111.294 20.7143 112.046 20.5867 112.84 20.3315C113.662 20.048 114.47 19.6226 115.264 19.0555C116.058 18.4884 116.781 17.7794 117.433 16.9288C118.114 16.0497 118.653 15.0147 119.05 13.8237V10.9739Z" fill="#FFDB58"/>
    <path d="M88.4041 21.9054L80.0673 1.48887L77.5578 1.06353V0.638184H87.8511V1.06353L85.1715 1.44634L91.7643 17.9497H92.2747L95.8476 7.91158C95.9894 7.54295 96.0886 7.1176 96.1453 6.63555C96.202 6.15349 96.2304 5.64308 96.2304 5.10431C96.2304 4.62225 96.1595 4.15437 96.0177 3.70067C95.9043 3.21861 95.6774 2.77909 95.3372 2.3821C95.0252 1.98511 94.5999 1.67319 94.0611 1.44634C93.5507 1.19113 92.8985 1.06353 92.1046 1.06353V0.638184H101.547V1.06353L98.8675 1.48887L91.3389 21.9054H88.4041Z" fill="#FFDB58"/>
    <path d="M65.8189 0C68.0874 0 69.9589 0.453703 71.4334 1.36111C72.9363 2.26851 74.0564 3.50201 74.7936 5.06161C75.5593 6.59286 75.9421 8.35095 75.9421 10.3359H59.141V9.91055L71.6036 9.44267C71.6036 7.57115 71.3909 5.98319 70.9655 4.6788C70.5402 3.34605 69.9022 2.32522 69.0515 1.61631C68.2008 0.907404 67.1233 0.55295 65.8189 0.55295C64.4861 0.55295 63.3235 0.935761 62.3311 1.70138C61.3386 2.46701 60.573 3.61544 60.0342 5.14668C59.4955 6.67793 59.2261 8.5778 59.2261 10.8463C59.2261 12.1791 59.4104 13.4551 59.779 14.6744C60.1476 15.8654 60.6722 16.9429 61.3528 17.907C62.0333 18.8428 62.8698 19.5801 63.8623 20.1188C64.8548 20.6576 65.989 20.927 67.2651 20.927C68.1157 20.927 68.9523 20.8136 69.7746 20.5867C70.5969 20.3599 71.3625 20.0338 72.0714 19.6084C72.7803 19.1547 73.4184 18.616 73.9855 17.9921C74.581 17.3399 75.0914 16.5885 75.5167 15.7378L75.9421 16.1631C75.3182 17.4108 74.6093 18.4458 73.8153 19.2682C73.0214 20.0905 72.1565 20.7427 71.2208 21.2247C70.285 21.7068 69.3209 22.0471 68.3284 22.2456C67.3359 22.4441 66.3293 22.5433 65.3085 22.5433C63.6071 22.5433 62.09 22.2456 60.7573 21.6501C59.4246 21.0546 58.2903 20.2606 57.3546 19.2682C56.4188 18.2473 55.6957 17.0705 55.1853 15.7378C54.7032 14.405 54.4622 12.9872 54.4622 11.4843C54.4622 9.75459 54.7458 8.19499 55.3129 6.80553C55.88 5.38771 56.6598 4.16839 57.6523 3.14756C58.6731 2.12673 59.8783 1.34693 61.2677 0.808158C62.6572 0.269386 64.1742 0 65.8189 0Z" fill="#FFDB58"/>
    <path d="M182.14 46.3001V45.8747L184.48 45.3643V26.3088H181.885V25.8409L189.158 24.3948V31.1578L189.499 31.498C189.924 30.5339 190.335 29.6691 190.732 28.9034C191.129 28.1378 191.526 27.4998 191.923 26.9894C192.632 26.082 193.369 25.4298 194.135 25.0328C194.929 24.6074 195.794 24.3948 196.73 24.3948C197.382 24.3948 197.977 24.5224 198.516 24.7776C199.083 25.0328 199.537 25.4156 199.877 25.926C200.246 26.4081 200.43 27.0319 200.43 27.7975C200.43 28.3647 200.274 28.8893 199.962 29.3713C199.679 29.8534 199.267 30.2504 198.729 30.5623C198.19 30.8458 197.538 30.9876 196.772 30.9876C196.091 30.9876 195.482 30.8742 194.943 30.6474C194.404 30.3921 193.979 30.0519 193.667 29.6265C193.383 29.2012 193.242 28.7333 193.242 28.2229C193.242 27.996 193.256 27.8117 193.284 27.6699C193.341 27.4998 193.383 27.3438 193.412 27.2021C193.44 27.0319 193.454 26.9043 193.454 26.8192C193.454 26.6207 193.383 26.5215 193.242 26.5215C192.958 26.5215 192.618 26.7767 192.221 27.2871C191.852 27.7692 191.427 28.4923 190.945 29.4564C190.633 30.0235 190.321 30.7041 190.009 31.498C189.697 32.292 189.414 33.1144 189.158 33.965V45.3643L191.54 45.8747V46.3001H182.14Z" fill="#FFDB58"/>
    <path d="M166.58 24.3948C168.225 24.3948 169.629 24.5933 170.791 24.9903C171.982 25.3589 172.961 25.9402 173.726 26.7342C174.492 27.5282 175.045 28.5348 175.385 29.7541C175.725 30.9451 175.895 32.3629 175.895 34.0076V44.8114C175.895 45.2367 175.98 45.5486 176.151 45.7471C176.349 45.9456 176.604 46.0449 176.916 46.0449C177.257 46.0449 177.639 45.9456 178.065 45.7471C178.518 45.5486 178.958 45.2934 179.383 44.9815V45.4494C179.043 45.7613 178.632 46.0307 178.15 46.2575C177.696 46.4844 177.214 46.6545 176.704 46.768C176.193 46.8814 175.697 46.9381 175.215 46.9381C173.967 46.9381 172.989 46.612 172.28 45.9598C171.571 45.2792 171.217 44.1875 171.217 42.6846C171.217 42.1175 171.217 41.7063 171.217 41.4511C171.217 41.1676 171.217 40.9549 171.217 40.8131C171.217 40.6713 171.217 40.5154 171.217 40.3452L170.876 40.09C170.338 41.1676 169.685 42.1317 168.92 42.9824C168.183 43.8331 167.346 44.5562 166.41 45.1516C165.503 45.7188 164.567 46.1583 163.603 46.4702C162.639 46.7821 161.675 46.9381 160.711 46.9381C159.661 46.9381 158.712 46.7538 157.861 46.3851C157.01 46.0449 156.33 45.5344 155.819 44.8539C155.309 44.145 155.054 43.2801 155.054 42.2593C155.054 39.849 156.429 38.02 159.179 36.7723C161.93 35.4963 165.942 34.8583 171.217 34.8583C171.217 32.448 171.032 30.5481 170.664 29.1586C170.295 27.7408 169.657 26.72 168.75 26.0962C167.842 25.4723 166.595 25.1604 165.007 25.1604C163.957 25.1604 163.022 25.2596 162.199 25.4581C161.405 25.6283 160.782 25.841 160.328 26.0962C159.902 26.3514 159.69 26.5782 159.69 26.7767C159.69 26.9185 159.817 27.0745 160.073 27.2446C160.356 27.3864 160.852 27.599 161.561 27.8826C162.866 28.393 163.518 29.1161 163.518 30.0519C163.518 30.9026 163.149 31.5548 162.412 32.0085C161.675 32.4338 160.782 32.6465 159.732 32.6465C158.712 32.6465 157.832 32.4196 157.095 31.9659C156.386 31.5122 156.032 30.86 156.032 30.0093C156.032 29.3288 156.315 28.6624 156.883 28.0102C157.478 27.3297 158.258 26.72 159.222 26.1812C160.214 25.6425 161.334 25.2171 162.582 24.9052C163.858 24.5649 165.191 24.3948 166.58 24.3948ZM171.217 35.3687C168.523 35.3687 166.297 35.6664 164.539 36.2619C162.781 36.829 161.476 37.6088 160.626 38.6013C159.775 39.5938 159.35 40.6997 159.35 41.919C159.35 42.6563 159.491 43.2659 159.775 43.748C160.087 44.2017 160.498 44.542 161.008 44.7688C161.519 44.9957 162.1 45.1091 162.752 45.1091C163.461 45.1091 164.213 44.9815 165.007 44.7263C165.829 44.4427 166.637 44.0174 167.431 43.4503C168.225 42.8831 168.948 42.1742 169.6 41.3235C170.281 40.4445 170.82 39.4095 171.217 38.2185V35.3687Z" fill="#FFDB58"/>
    <path d="M137.687 45.4495L140.027 45.8748V46.3001H130.627V45.8748L133.009 45.4495V16.526H130.371V16.0581L137.687 14.6119V45.4495ZM137.262 34.6032V34.0502C138.084 33.9935 139.02 33.7383 140.069 33.2846C141.118 32.8309 142.182 32.3205 143.259 31.7533C144.138 31.2713 144.862 30.8601 145.429 30.5198C145.996 30.1796 146.421 29.8818 146.705 29.6266C146.988 29.3714 147.13 29.1587 147.13 28.9886C147.13 28.8468 147.002 28.7334 146.747 28.6483C146.492 28.5349 146.166 28.4215 145.769 28.3081C145.4 28.1946 144.989 28.067 144.535 27.9252C144.11 27.7835 143.699 27.6133 143.302 27.4148C142.905 27.188 142.579 26.9044 142.324 26.5641C142.068 26.1955 141.941 25.7702 141.941 25.2881C141.941 24.7493 142.097 24.2815 142.409 23.8845C142.749 23.4591 143.203 23.133 143.77 22.9062C144.337 22.651 144.989 22.5234 145.726 22.5234C146.492 22.5234 147.173 22.6651 147.768 22.9487C148.363 23.2323 148.831 23.6151 149.172 24.0971C149.54 24.5792 149.725 25.1463 149.725 25.7985C149.725 26.5925 149.469 27.3439 148.959 28.0528C148.449 28.7618 147.683 29.499 146.662 30.2646C146.123 30.6616 145.429 31.1153 144.578 31.6257C143.727 32.1362 142.721 32.6891 141.558 33.2846V33.7525H144.493C145.088 35.0569 145.599 36.2195 146.024 37.2403C146.449 38.2328 146.832 39.1118 147.173 39.8774C147.768 41.04 148.293 42.0325 148.746 42.8549C149.228 43.6772 149.668 44.3294 150.065 44.8114C150.462 45.2935 150.83 45.5912 151.171 45.7047C151.341 45.7614 151.483 45.7756 151.596 45.7472C151.71 45.7188 151.837 45.6621 151.979 45.5771V46.13C151.667 46.3002 151.355 46.4419 151.043 46.5554C150.76 46.6971 150.448 46.7964 150.107 46.8531C149.795 46.9098 149.441 46.9382 149.044 46.9382C148.222 46.9382 147.442 46.7255 146.705 46.3001C145.996 45.8464 145.301 45.1517 144.62 44.216C143.94 43.2518 143.245 42.0609 142.536 40.6431C142.111 39.6506 141.657 38.6723 141.175 37.7082C140.721 36.7441 140.268 35.7091 139.814 34.6032H137.262Z" fill="#FFDB58"/>
    <path d="M110.549 46.9381C108.536 46.9381 107.018 46.3142 105.998 45.0666C104.977 43.8189 104.466 41.9332 104.466 39.4095V26.3088H101.829V25.841L109.145 24.3948V40.09C109.145 41.7631 109.443 43.0391 110.038 43.9181C110.634 44.7688 111.499 45.1942 112.633 45.1942C113.569 45.1942 114.519 44.8681 115.483 44.2159C116.447 43.5353 117.354 42.6279 118.205 41.4937C119.056 40.3311 119.765 39.0267 120.332 37.5805V26.3088H117.737V25.841L125.01 24.3948V45.024H127.605V45.4919L120.332 46.9381V39.9199L119.991 39.6647C118.744 42.075 117.326 43.8898 115.738 45.1091C114.15 46.3284 112.42 46.9381 110.549 46.9381Z" fill="#FFDB58"/>
    <path d="M88.3243 24.3948C90.0823 24.3948 91.6419 24.6642 93.003 25.2029C94.3925 25.7417 95.5551 26.5215 96.4908 27.5423C97.4266 28.5348 98.1355 29.74 98.6176 31.1578C99.0996 32.5472 99.3406 34.1068 99.3406 35.8366C99.3406 37.4529 99.0996 38.9416 98.6176 40.3027C98.1355 41.6354 97.4266 42.8122 96.4908 43.8331C95.5551 44.8255 94.4067 45.5912 93.0456 46.1299C91.6845 46.6687 90.1107 46.9381 88.3243 46.9381C86.5095 46.9381 84.9073 46.6687 83.5179 46.1299C82.1568 45.5912 81.0083 44.8255 80.0726 43.8331C79.1368 42.8122 78.4279 41.6354 77.9459 40.3027C77.4922 38.9416 77.2653 37.4529 77.2653 35.8366C77.2653 34.1068 77.5205 32.5472 78.0309 31.1578C78.5413 29.74 79.2644 28.5348 80.2002 27.5423C81.1643 26.5215 82.3269 25.7417 83.688 25.2029C85.0491 24.6642 86.5945 24.3948 88.3243 24.3948ZM88.3243 24.9477C86.9348 24.9477 85.7722 25.4156 84.8364 26.3514C83.929 27.2871 83.2343 28.5773 82.7523 30.222C82.2986 31.8667 82.0717 33.7382 82.0717 35.8366C82.0717 37.3395 82.1851 38.7289 82.412 40.005C82.6672 41.281 83.05 42.4011 83.5604 43.3652C84.0992 44.3293 84.7655 45.0807 85.5595 45.6195C86.3535 46.1299 87.2751 46.3851 88.3243 46.3851C89.3451 46.3851 90.2383 46.1299 91.0039 45.6195C91.7979 45.0807 92.4643 44.3435 93.003 43.4077C93.5418 42.4436 93.9388 41.3235 94.194 40.0475C94.4492 38.7431 94.5768 37.3395 94.5768 35.8366C94.5768 34.2486 94.4492 32.8024 94.194 31.498C93.9388 30.1653 93.556 29.0169 93.0456 28.0527C92.5352 27.0603 91.883 26.2947 91.089 25.7559C90.295 25.2171 89.3734 24.9477 88.3243 24.9477Z" fill="#FFDB58"/>
    <path d="M63.6794 46.9381C62.4034 46.9381 61.1982 46.8247 60.064 46.5978C58.9581 46.371 57.9656 46.0307 57.0866 45.577C56.2359 45.1233 55.5695 44.5845 55.0875 43.9607C54.6054 43.3368 54.3644 42.6421 54.3644 41.8765C54.3644 41.3094 54.5203 40.8415 54.8323 40.4728C55.1725 40.0758 55.5979 39.7781 56.1083 39.5796C56.6187 39.3811 57.1575 39.2819 57.7246 39.2819C58.2917 39.2819 58.8305 39.3811 59.3409 39.5796C59.8513 39.7498 60.2625 40.005 60.5744 40.3452C60.8863 40.6855 61.0423 41.0967 61.0423 41.5787C61.0423 41.9757 60.943 42.3302 60.7445 42.6421C60.5744 42.954 60.305 43.2518 59.9364 43.5353C59.4827 43.8472 59.1708 44.1025 59.0006 44.3009C58.8305 44.4994 58.7454 44.7121 58.7454 44.939C58.7454 45.1658 58.9439 45.3927 59.3409 45.6195C59.7379 45.8464 60.2908 46.0449 60.9997 46.215C61.737 46.3568 62.5593 46.4277 63.4667 46.4277C64.7428 46.4277 65.8628 46.2717 66.8269 45.9598C67.791 45.6195 68.5425 45.1375 69.0813 44.5136C69.6484 43.8898 69.9319 43.0958 69.9319 42.1317C69.9319 41.3944 69.7051 40.728 69.2514 40.1326C68.7977 39.5371 68.0463 38.9699 66.9971 38.4312C65.9479 37.8924 64.5159 37.3395 62.7011 36.7723C60.6878 36.0918 59.0857 35.4112 57.8947 34.7307C56.7321 34.0501 55.8956 33.327 55.3852 32.5614C54.9031 31.7958 54.6621 30.9593 54.6621 30.0519C54.6621 28.3221 55.5128 26.9468 57.2142 25.926C58.9439 24.9052 61.2691 24.3948 64.1898 24.3948C65.7778 24.3948 67.2381 24.6074 68.5708 25.0328C69.9036 25.4581 70.9811 26.0536 71.8035 26.8192C72.6258 27.5565 73.0369 28.4356 73.0369 29.4564C73.0369 29.9952 72.881 30.4489 72.5691 30.8175C72.2571 31.1578 71.846 31.413 71.3356 31.5831C70.8535 31.7533 70.3431 31.8383 69.8043 31.8383C69.379 31.8383 68.9537 31.7958 68.5283 31.7107C68.1313 31.5973 67.7627 31.4555 67.4224 31.2854C67.1105 31.0869 66.8553 30.8459 66.6568 30.5623C66.4583 30.2504 66.3591 29.8959 66.3591 29.4989C66.3591 28.7333 66.7844 28.0669 67.6351 27.4998C68.0888 27.2162 68.4007 26.9752 68.5708 26.7767C68.741 26.5782 68.826 26.3939 68.826 26.2238C68.826 26.082 68.7126 25.926 68.4858 25.7559C68.2589 25.5857 67.9328 25.444 67.5075 25.3305C67.1105 25.1888 66.6568 25.0895 66.1464 25.0328C65.636 24.9477 65.083 24.9052 64.4875 24.9052C63.2115 24.9052 62.0773 25.047 61.0848 25.3305C60.0923 25.6141 59.3125 26.0394 58.7454 26.6066C58.1783 27.1453 57.8947 27.8117 57.8947 28.6057C57.8947 29.3146 58.1641 29.9952 58.7029 30.6474C59.2416 31.2712 60.0356 31.8525 61.0848 32.3913C62.134 32.9017 63.4242 33.4121 64.9554 33.9225C67.0821 34.6598 68.7552 35.3545 69.9745 36.0067C71.2221 36.6589 72.1154 37.3395 72.6541 38.0484C73.1929 38.7289 73.4623 39.5229 73.4623 40.4303C73.4623 41.4795 73.2071 42.4152 72.6967 43.2376C72.1863 44.0599 71.4915 44.7405 70.6125 45.2792C69.7334 45.818 68.6984 46.2292 67.5075 46.5127C66.3449 46.7963 65.0689 46.9381 63.6794 46.9381Z" fill="#FFDB58"/>
    <path d="M36.5866 0.0126953C38.7337 0.0126953 40.6017 0.257799 42.1905 0.748006C43.7794 1.23821 45.0247 1.94084 45.9265 2.8559C46.8283 3.77096 47.2791 4.84941 47.2791 6.09127C47.2791 7.39849 46.9571 8.60767 46.3129 9.71881C45.7118 10.7973 44.9817 11.843 44.1229 12.8561C43.307 13.8366 42.577 14.817 41.9329 15.7974C41.3317 16.7778 41.0311 17.7909 41.0311 18.8367C41.0311 19.6864 41.3317 20.389 41.9329 20.9446C42.5341 21.4675 43.307 21.876 44.2517 22.1701C45.1965 22.4315 46.1841 22.6113 47.2147 22.7093C48.2453 22.8074 49.2115 22.8564 50.1133 22.8564L51.8525 22.8074L51.9169 23.9348L50.1133 23.8858C49.2545 23.8858 48.2883 23.9512 47.2147 24.0819C46.1841 24.1799 45.1965 24.3924 44.2517 24.7192C43.307 25.0133 42.5126 25.4545 41.8684 26.0427C41.2673 26.631 40.9667 27.399 40.9667 28.3467C40.9667 29.2618 41.2887 30.1768 41.9329 31.0919C42.577 31.9742 43.307 32.9056 44.1229 33.8861C44.9817 34.8338 45.7332 35.8305 46.3774 36.8763C47.0215 37.9221 47.3436 39.0659 47.3436 40.3078C47.3436 41.5823 46.9571 42.7098 46.1841 43.6902C45.4112 44.7033 44.2303 45.4876 42.6414 46.0432C41.0955 46.6315 39.0987 46.9256 36.651 46.9256C35.7063 46.9256 34.7401 46.8766 33.7524 46.7785C32.7647 46.6805 31.82 46.5171 30.9182 46.2883C30.0165 46.0922 29.1361 45.8144 28.2773 45.455C27.4185 45.1282 26.6455 44.736 25.9584 44.2785L25.9584 43.5747C26.6026 43.9015 27.5473 44.3438 28.2773 44.5726C29.0073 44.834 29.7588 45.0301 30.5318 45.1608C31.3047 45.2916 32.0562 45.3569 32.7862 45.3569C34.0745 45.3569 35.2124 45.1772 36.2001 44.8177C37.2307 44.4582 38.0466 43.87 38.6478 43.0529C39.249 42.2359 39.5496 41.1902 39.5496 39.9156C39.5496 39.3274 39.3993 38.7064 39.0987 38.0528C38.841 37.3665 38.4975 36.6639 38.0681 35.9449C37.6816 35.226 37.2737 34.507 36.8442 33.788C36.4148 33.069 36.0498 32.3828 35.7492 31.7291C35.4916 31.0755 35.3627 30.4546 35.3627 29.8664C35.3627 28.7225 35.6848 27.6604 36.3289 26.68C37.016 25.6996 38.0681 24.9153 39.4852 24.327C40.9452 23.7061 42.7917 23.3956 45.0247 23.3956C42.8776 23.3956 41.074 23.1015 39.614 22.5132C38.1969 21.925 37.1234 21.1733 36.3933 20.2583C35.7063 19.3432 35.3627 18.3955 35.3627 17.4151C35.3627 16.5327 35.556 15.6176 35.9425 14.6699C36.3719 13.6895 36.8657 12.7091 37.424 11.7287C37.9822 10.7482 38.4546 9.78417 38.841 8.83644C39.2705 7.85602 39.4852 6.92463 39.4852 6.04225C39.4852 4.50627 38.8196 3.37879 37.4884 2.65982C36.2001 1.94085 34.5039 1.58136 32.3997 1.58136C31.455 1.58136 30.4673 1.71208 29.4367 1.97353C28.4491 2.23497 27.1179 2.80805 25.9584 3.36362L25.9584 2.65982C26.6455 2.23497 27.3755 1.87549 28.1485 1.58136C28.9644 1.25456 29.8232 0.976771 30.725 0.748006C31.6268 0.519244 32.55 0.339501 33.4948 0.208779C34.4824 0.0780565 35.513 0.0126953 36.5866 0.0126953Z" fill="#E60E9E"/>
    <path d="M15.3303 46.9255C13.1832 46.9255 11.3152 46.6804 9.72636 46.1902C8.1375 45.7 6.89218 44.9974 5.9904 44.0823C5.08862 43.1673 4.63773 42.0888 4.63773 40.847C4.63773 39.5397 4.95979 38.3306 5.60392 37.2194C6.20511 36.141 6.93513 35.0952 7.79397 34.0821C8.60987 33.1017 9.33988 32.1213 9.98401 31.1408C10.5852 30.1604 10.8858 29.1473 10.8858 28.1016C10.8858 27.2519 10.5852 26.5492 9.98401 25.9937C9.38282 25.4708 8.60987 25.0623 7.66514 24.7681C6.72042 24.5067 5.73275 24.327 4.70214 24.2289C3.67153 24.1309 2.70534 24.0818 1.80356 24.0818L0.0644036 24.1309L-9.34915e-06 23.0034L1.80356 23.0524C2.6624 23.0524 3.62859 22.9871 4.70214 22.8563C5.73275 22.7583 6.72042 22.5459 7.66514 22.2191C8.60987 21.9249 9.40429 21.4837 10.0484 20.8955C10.6496 20.3072 10.9502 19.5393 10.9502 18.5915C10.9502 17.6765 10.6281 16.7614 9.98401 15.8464C9.33988 14.964 8.60987 14.0326 7.79397 13.0522C6.93513 12.1044 6.18364 11.1077 5.53951 10.0619C4.89538 9.01613 4.57332 7.87231 4.57332 6.63045C4.57332 5.35591 4.9598 4.22843 5.73275 3.24801C6.50571 2.23492 7.68661 1.45059 9.27547 0.895018C10.8214 0.306769 12.8182 0.0126446 15.2659 0.0126448C16.2106 0.0126449 17.1768 0.0616679 18.1645 0.159709C19.1521 0.257751 20.0969 0.42115 20.9986 0.649913C21.9004 0.845996 22.7807 1.12378 23.6396 1.48327C24.4984 1.81007 25.2714 2.20224 25.9584 2.65977L25.9584 3.36357C25.3143 3.03676 24.3696 2.59441 23.6396 2.36564C22.9096 2.1042 22.1581 1.90812 21.3851 1.7774C20.6122 1.64667 19.8607 1.58131 19.1307 1.58131C17.8424 1.58131 16.7044 1.76105 15.7168 2.12054C14.6862 2.48003 13.8703 3.06827 13.2691 3.88529C12.6679 4.7023 12.3673 5.74808 12.3673 7.02262C12.3673 7.61087 12.5176 8.23179 12.8182 8.88541C13.0758 9.5717 13.4194 10.2743 13.8488 10.9933C14.2353 11.7123 14.6432 12.4312 15.0726 13.1502C15.5021 13.8692 15.8671 14.5555 16.1677 15.2091C16.4253 15.8627 16.5541 16.4836 16.5541 17.0719C16.5541 18.2157 16.2321 19.2778 15.5879 20.2582C14.9009 21.2386 13.8488 22.023 12.4317 22.6112C10.9717 23.2322 9.12517 23.5426 6.89219 23.5426C9.03928 23.5426 10.8428 23.8367 12.3029 24.425C13.72 25.0132 14.7935 25.7649 15.5235 26.6799C16.2106 27.595 16.5541 28.5427 16.5541 29.5232C16.5541 30.4055 16.3609 31.3206 15.9744 32.2683C15.545 33.2487 15.0512 34.2292 14.4929 35.2096C13.9347 36.19 13.4623 37.1541 13.0758 38.1018C12.6464 39.0822 12.4317 40.0136 12.4317 40.896C12.4317 42.432 13.0973 43.5594 14.4285 44.2784C15.7168 44.9974 17.413 45.3569 19.5171 45.3569C20.4619 45.3569 21.4495 45.2261 22.4801 44.9647C23.4678 44.7033 24.799 44.1302 25.9584 43.5746L25.9584 44.2784C25.2714 44.7033 24.5413 45.0627 23.7684 45.3569C22.9525 45.6837 22.0937 45.9615 21.1919 46.1902C20.2901 46.419 19.3668 46.5987 18.4221 46.7295C17.4344 46.8602 16.4038 46.9255 15.3303 46.9255Z" fill="#E60E9E"/>
    <path d="M25.8535 7.20605C27.3394 7.20605 28.5657 7.50094 29.5324 8.0907C30.4992 8.68046 31.2242 9.46681 31.7076 10.4498C32.1909 11.4327 32.4326 12.5407 32.4326 13.7739H22.2551V13.5058L28.9416 13.1573C28.9416 11.9599 28.8342 10.9412 28.6194 10.1013C28.4046 9.26129 28.0644 8.62685 27.599 8.19793C27.1514 7.75114 26.5606 7.52774 25.8266 7.52774C25.1105 7.52774 24.484 7.76008 23.9469 8.22474C23.4277 8.6894 23.0249 9.39533 22.7385 10.3425C22.4699 11.2718 22.3357 12.4692 22.3357 13.9347C22.3357 14.7389 22.4341 15.5164 22.6311 16.267C22.8459 16.9997 23.1502 17.6699 23.5441 18.2775C23.9558 18.8673 24.4571 19.3409 25.0479 19.6983C25.6387 20.0379 26.3279 20.2077 27.1156 20.2077C27.599 20.2077 28.0823 20.1362 28.5657 19.9932C29.0491 19.8502 29.5056 19.6447 29.9352 19.3766C30.3649 19.1085 30.7587 18.7869 31.1168 18.4116C31.4748 18.0184 31.7702 17.5627 32.003 17.0444L32.2983 17.3125C31.8866 18.1524 31.4122 18.8405 30.8751 19.3766C30.3559 19.9128 29.792 20.3328 29.1833 20.6366C28.5746 20.9225 27.957 21.1191 27.3304 21.2263C26.7038 21.3514 26.0862 21.414 25.4775 21.414C24.3676 21.414 23.383 21.2263 22.5236 20.851C21.6643 20.4757 20.9303 19.9664 20.3216 19.323C19.7309 18.6618 19.2744 17.9201 18.9521 17.098C18.6478 16.258 18.4956 15.3913 18.4956 14.4977C18.4956 13.3718 18.6746 12.362 19.0327 11.4684C19.4086 10.5749 19.9188 9.81531 20.5633 9.1898C21.2257 8.54643 22.0045 8.05496 22.8996 7.7154C23.7947 7.37584 24.7793 7.20605 25.8535 7.20605Z" fill="#E60E9E"/>
    <path d="M26.322 39.7321C25.4985 39.7321 24.7198 39.6517 23.9858 39.4908C23.2518 39.3479 22.5983 39.1423 22.0254 38.8743C21.4705 38.5883 21.0319 38.2488 20.7096 37.8556C20.3874 37.4445 20.2263 36.9799 20.2263 36.4616C20.2263 36.0684 20.3426 35.7467 20.5754 35.4965C20.8081 35.2463 21.1035 35.0587 21.4615 34.9336C21.8375 34.7906 22.2134 34.7191 22.5894 34.7191C23.0011 34.7191 23.3771 34.7817 23.7172 34.9068C24.0753 35.0319 24.3617 35.2106 24.5765 35.4429C24.7914 35.6752 24.8988 35.9701 24.8988 36.3276C24.8988 36.5778 24.8451 36.8101 24.7377 37.0246C24.6302 37.2211 24.4602 37.4177 24.2274 37.6143C23.941 37.8288 23.7441 38.0075 23.6367 38.1505C23.5472 38.2756 23.5024 38.4185 23.5024 38.5794C23.5024 38.7045 23.6098 38.8385 23.8246 38.9815C24.0395 39.1066 24.3438 39.2138 24.7377 39.3032C25.1315 39.3925 25.597 39.4372 26.134 39.4372C26.868 39.4372 27.5215 39.3479 28.0944 39.1691C28.6672 38.9904 29.1148 38.7224 29.437 38.3649C29.7772 37.9896 29.9473 37.516 29.9473 36.9441C29.9473 36.4795 29.804 36.0595 29.5176 35.6842C29.2491 35.3089 28.7926 34.9514 28.1481 34.6119C27.5036 34.2723 26.6174 33.9149 25.4896 33.5396C24.2185 33.0928 23.207 32.646 22.4551 32.1992C21.7211 31.7524 21.193 31.2878 20.8707 30.8052C20.5664 30.3048 20.4142 29.7687 20.4142 29.1968C20.4142 28.0709 20.9692 27.1773 22.0792 26.516C23.207 25.8548 24.7377 25.5242 26.6711 25.5242C27.7095 25.5242 28.6672 25.6582 29.5445 25.9263C30.4217 26.1944 31.1288 26.5697 31.6659 27.0522C32.203 27.5169 32.4715 28.0798 32.4715 28.7411C32.4715 29.0985 32.3641 29.4023 32.1493 29.6525C31.9344 29.8848 31.648 30.0636 31.2899 30.1887C30.9498 30.3138 30.5917 30.3763 30.2158 30.3763C29.9294 30.3763 29.6429 30.3406 29.3565 30.2691C29.07 30.1976 28.8105 30.0993 28.5777 29.9742C28.345 29.8312 28.157 29.6614 28.0138 29.4649C27.8706 29.2504 27.799 29.0181 27.799 28.7679C27.799 28.2496 28.0675 27.8028 28.6046 27.4275C28.891 27.213 29.0879 27.0433 29.1954 26.9182C29.3028 26.7931 29.3565 26.668 29.3565 26.5429C29.3565 26.4535 29.2938 26.3641 29.1685 26.2748C29.0611 26.1854 28.891 26.1139 28.6583 26.0603C28.4435 25.9888 28.1839 25.9352 27.8795 25.8995C27.5752 25.8459 27.244 25.8191 26.8859 25.8191C26.1519 25.8191 25.4896 25.8995 24.8988 26.0603C24.308 26.2212 23.8336 26.4624 23.4755 26.7841C23.1354 27.0879 22.9653 27.4811 22.9653 27.9636C22.9653 28.4283 23.1443 28.8572 23.5024 29.2504C23.8604 29.6257 24.3617 29.9831 25.0062 30.3227C25.6686 30.6623 26.4563 30.9929 27.3693 31.3146C28.712 31.815 29.7682 32.2796 30.538 32.7086C31.3257 33.1196 31.8897 33.5485 32.2298 33.9953C32.57 34.4421 32.74 34.9425 32.74 35.4965C32.74 36.2114 32.561 36.828 32.203 37.3462C31.8628 37.8645 31.3974 38.3024 30.8066 38.6598C30.2158 39.0172 29.5355 39.2853 28.7657 39.464C27.9959 39.6427 27.1813 39.7321 26.322 39.7321Z" fill="#E60E9E"/>
</svg>
