<svg width="321" height="77" viewBox="0 0 321 77" fill="none" xmlns="http://www.w3.org/2000/svg">
    <path d="M182.916 0.97998C185.545 0.97998 187.789 1.29731 189.648 1.93198C191.552 2.52131 193.116 3.45065 194.34 4.71998C195.564 5.98932 196.448 7.59865 196.992 9.54798C197.536 11.452 197.808 13.7186 197.808 16.348V33.62C197.808 34.3 197.944 34.7987 198.216 35.116C198.533 35.4333 198.941 35.592 199.44 35.592C199.984 35.592 200.596 35.4333 201.276 35.116C202.001 34.7987 202.704 34.3906 203.384 33.892V34.64C202.84 35.1386 202.183 35.5693 201.412 35.932C200.687 36.2947 199.916 36.5667 199.1 36.748C198.284 36.9293 197.491 37.02 196.72 37.02C194.725 37.02 193.162 36.4987 192.028 35.456C190.895 34.368 190.328 32.6227 190.328 30.22C190.328 29.3133 190.328 28.656 190.328 28.248C190.328 27.7947 190.328 27.4547 190.328 27.228C190.328 27.0013 190.328 26.752 190.328 26.48L189.784 26.072C188.923 27.7947 187.88 29.336 186.656 30.696C185.477 32.056 184.14 33.212 182.644 34.164C181.193 35.0707 179.698 35.7733 178.156 36.272C176.615 36.7706 175.073 37.02 173.532 37.02C171.855 37.02 170.336 36.7253 168.976 36.136C167.616 35.592 166.528 34.776 165.712 33.688C164.896 32.5547 164.488 31.172 164.488 29.54C164.488 25.6867 166.687 22.7626 171.084 20.768C175.481 18.728 181.896 17.708 190.328 17.708C190.328 13.8546 190.033 10.8173 189.444 8.59598C188.855 6.32932 187.835 4.69732 186.384 3.69998C184.933 2.70265 182.939 2.20398 180.4 2.20398C178.723 2.20398 177.227 2.36265 175.912 2.67998C174.643 2.95198 173.645 3.29198 172.92 3.69998C172.24 4.10798 171.9 4.47065 171.9 4.78798C171.9 5.01465 172.104 5.26398 172.512 5.53598C172.965 5.76265 173.759 6.10265 174.892 6.55598C176.977 7.37198 178.02 8.52798 178.02 10.024C178.02 11.384 177.431 12.4266 176.252 13.152C175.073 13.832 173.645 14.172 171.968 14.172C170.336 14.172 168.931 13.8093 167.752 13.084C166.619 12.3587 166.052 11.316 166.052 9.95598C166.052 8.86798 166.505 7.80265 167.412 6.75998C168.364 5.67198 169.611 4.69732 171.152 3.83598C172.739 2.97465 174.529 2.29465 176.524 1.79598C178.564 1.25198 180.695 0.97998 182.916 0.97998ZM190.328 18.524C186.021 18.524 182.463 19 179.652 19.952C176.841 20.8587 174.756 22.1053 173.396 23.692C172.036 25.2786 171.356 27.0466 171.356 28.996C171.356 30.1747 171.583 31.1493 172.036 31.92C172.535 32.6453 173.192 33.1893 174.008 33.552C174.824 33.9146 175.753 34.096 176.796 34.096C177.929 34.096 179.131 33.892 180.4 33.484C181.715 33.0307 183.007 32.3507 184.276 31.444C185.545 30.5373 186.701 29.404 187.744 28.044C188.832 26.6387 189.693 24.984 190.328 23.08V18.524Z" fill="black"/>
    <path d="M141.325 36L127.997 3.36L123.985 2.68V2H140.441V2.68L136.157 3.292L146.697 29.676H147.513L153.225 13.628C153.451 13.0387 153.61 12.3587 153.701 11.588C153.791 10.8173 153.837 10.0013 153.837 9.14C153.837 8.36933 153.723 7.62133 153.497 6.896C153.315 6.12533 152.953 5.42266 152.409 4.788C151.91 4.15333 151.23 3.65467 150.369 3.292C149.553 2.884 148.51 2.68 147.241 2.68V2H162.337V2.68L158.053 3.36L146.017 36H141.325Z" fill="black"/>
    <path d="M105.216 0.97998C108.843 0.97998 111.835 1.70532 114.192 3.15598C116.595 4.60665 118.385 6.57865 119.564 9.07198C120.788 11.52 121.4 14.3306 121.4 17.504H94.5401V16.824L114.464 16.076C114.464 13.084 114.124 10.5453 113.444 8.45998C112.764 6.32931 111.744 4.69731 110.384 3.56398C109.024 2.43065 107.301 1.86398 105.216 1.86398C103.085 1.86398 101.227 2.47598 99.6401 3.69998C98.0534 4.92398 96.8294 6.75998 95.9681 9.20798C95.1067 11.656 94.6761 14.6933 94.6761 18.32C94.6761 20.4507 94.9707 22.4907 95.5601 24.44C96.1494 26.344 96.9881 28.0666 98.0761 29.608C99.1641 31.104 100.501 32.2827 102.088 33.144C103.675 34.0053 105.488 34.436 107.528 34.436C108.888 34.436 110.225 34.2547 111.54 33.892C112.855 33.5293 114.079 33.008 115.212 32.328C116.345 31.6026 117.365 30.7413 118.272 29.744C119.224 28.7013 120.04 27.5 120.72 26.14L121.4 26.82C120.403 28.8147 119.269 30.4693 118 31.784C116.731 33.0987 115.348 34.1413 113.852 34.912C112.356 35.6827 110.815 36.2267 109.228 36.544C107.641 36.8613 106.032 37.02 104.4 37.02C101.68 37.02 99.2547 36.544 97.1241 35.592C94.9934 34.64 93.1801 33.3707 91.6841 31.784C90.1881 30.152 89.0321 28.2707 88.2161 26.14C87.4454 24.0093 87.0601 21.7427 87.0601 19.34C87.0601 16.5747 87.5134 14.0813 88.4201 11.86C89.3267 9.59332 90.5734 7.64398 92.1601 6.01198C93.7921 4.37998 95.7187 3.13332 97.9401 2.27198C100.161 1.41065 102.587 0.97998 105.216 0.97998Z" fill="black"/>
    <path d="M291.193 75V74.32L294.933 73.504V43.04H290.785V42.292L302.413 39.98V50.792L302.957 51.336C303.637 49.7946 304.294 48.412 304.929 47.188C305.564 45.964 306.198 44.944 306.833 44.128C307.966 42.6773 309.145 41.6346 310.369 41C311.638 40.32 313.021 39.98 314.517 39.98C315.56 39.98 316.512 40.184 317.373 40.592C318.28 41 319.005 41.612 319.549 42.428C320.138 43.1986 320.433 44.196 320.433 45.42C320.433 46.3266 320.184 47.1653 319.685 47.936C319.232 48.7066 318.574 49.3413 317.713 49.84C316.852 50.2933 315.809 50.52 314.585 50.52C313.497 50.52 312.522 50.3386 311.661 49.976C310.8 49.568 310.12 49.024 309.621 48.344C309.168 47.664 308.941 46.916 308.941 46.1C308.941 45.7373 308.964 45.4426 309.009 45.216C309.1 44.944 309.168 44.6946 309.213 44.468C309.258 44.196 309.281 43.992 309.281 43.856C309.281 43.5386 309.168 43.38 308.941 43.38C308.488 43.38 307.944 43.788 307.309 44.604C306.72 45.3746 306.04 46.5307 305.269 48.072C304.77 48.9786 304.272 50.0666 303.773 51.336C303.274 52.6053 302.821 53.92 302.413 55.28V73.504L306.221 74.32V75H291.193Z" fill="black"/>
    <path d="M266.322 39.98C268.952 39.98 271.196 40.2973 273.054 40.932C274.958 41.5213 276.522 42.4506 277.746 43.72C278.97 44.9893 279.854 46.5986 280.398 48.548C280.942 50.452 281.214 52.7186 281.214 55.348V72.62C281.214 73.3 281.35 73.7987 281.622 74.116C281.94 74.4333 282.348 74.592 282.846 74.592C283.39 74.592 284.002 74.4333 284.682 74.116C285.408 73.7987 286.11 73.3906 286.79 72.892V73.64C286.246 74.1386 285.589 74.5693 284.818 74.932C284.093 75.2947 283.322 75.5667 282.506 75.748C281.69 75.9293 280.897 76.02 280.126 76.02C278.132 76.02 276.568 75.4987 275.434 74.456C274.301 73.368 273.734 71.6227 273.734 69.22C273.734 68.3133 273.734 67.656 273.734 67.248C273.734 66.7947 273.734 66.4547 273.734 66.228C273.734 66.0013 273.734 65.752 273.734 65.48L273.19 65.072C272.329 66.7947 271.286 68.336 270.062 69.696C268.884 71.056 267.546 72.212 266.05 73.164C264.6 74.0707 263.104 74.7733 261.562 75.272C260.021 75.7706 258.48 76.02 256.938 76.02C255.261 76.02 253.742 75.7253 252.382 75.136C251.022 74.592 249.934 73.776 249.118 72.688C248.302 71.5547 247.894 70.172 247.894 68.54C247.894 64.6867 250.093 61.7626 254.49 59.768C258.888 57.728 265.302 56.708 273.734 56.708C273.734 52.8546 273.44 49.8173 272.85 47.596C272.261 45.3293 271.241 43.6973 269.79 42.7C268.34 41.7027 266.345 41.204 263.806 41.204C262.129 41.204 260.633 41.3627 259.318 41.68C258.049 41.952 257.052 42.292 256.326 42.7C255.646 43.108 255.306 43.4706 255.306 43.788C255.306 44.0146 255.51 44.264 255.918 44.536C256.372 44.7626 257.165 45.1026 258.298 45.556C260.384 46.372 261.426 47.528 261.426 49.024C261.426 50.384 260.837 51.4266 259.658 52.152C258.48 52.832 257.052 53.172 255.374 53.172C253.742 53.172 252.337 52.8093 251.158 52.084C250.025 51.3587 249.458 50.316 249.458 48.956C249.458 47.868 249.912 46.8027 250.818 45.76C251.77 44.672 253.017 43.6973 254.558 42.836C256.145 41.9746 257.936 41.2946 259.93 40.796C261.97 40.252 264.101 39.98 266.322 39.98ZM273.734 57.524C269.428 57.524 265.869 58 263.058 58.952C260.248 59.8587 258.162 61.1053 256.802 62.692C255.442 64.2786 254.762 66.0466 254.762 67.996C254.762 69.1747 254.989 70.1493 255.442 70.92C255.941 71.6453 256.598 72.1893 257.414 72.552C258.23 72.9146 259.16 73.096 260.202 73.096C261.336 73.096 262.537 72.892 263.806 72.484C265.121 72.0307 266.413 71.3507 267.682 70.444C268.952 69.5373 270.108 68.404 271.15 67.044C272.238 65.6387 273.1 63.984 273.734 62.08V57.524Z" fill="black"/>
    <path d="M220.136 73.64L223.876 74.32V75H208.848V74.32L212.656 73.64V27.4H208.44V26.652L220.136 24.34V73.64ZM219.456 56.3V55.416C220.77 55.3253 222.266 54.9173 223.944 54.192C225.621 53.4666 227.321 52.6506 229.044 51.744C230.449 50.9733 231.605 50.316 232.512 49.772C233.418 49.228 234.098 48.752 234.552 48.344C235.005 47.936 235.232 47.596 235.232 47.324C235.232 47.0973 235.028 46.916 234.62 46.78C234.212 46.5986 233.69 46.4173 233.056 46.236C232.466 46.0546 231.809 45.8506 231.084 45.624C230.404 45.3973 229.746 45.1253 229.112 44.808C228.477 44.4453 227.956 43.992 227.548 43.448C227.14 42.8586 226.936 42.1786 226.936 41.408C226.936 40.5466 227.185 39.7986 227.684 39.164C228.228 38.484 228.953 37.9626 229.86 37.6C230.766 37.192 231.809 36.988 232.988 36.988C234.212 36.988 235.3 37.2146 236.252 37.668C237.204 38.1213 237.952 38.7333 238.496 39.504C239.085 40.2746 239.38 41.1813 239.38 42.224C239.38 43.4933 238.972 44.6946 238.156 45.828C237.34 46.9613 236.116 48.14 234.484 49.364C233.622 49.9986 232.512 50.724 231.152 51.54C229.792 52.356 228.182 53.24 226.324 54.192V54.94H231.016C231.968 57.0253 232.784 58.884 233.464 60.516C234.144 62.1026 234.756 63.508 235.3 64.732C236.252 66.5906 237.09 68.1773 237.816 69.492C238.586 70.8066 239.289 71.8493 239.924 72.62C240.558 73.3906 241.148 73.8666 241.692 74.048C241.964 74.1386 242.19 74.1613 242.372 74.116C242.553 74.0706 242.757 73.98 242.984 73.844V74.728C242.485 75 241.986 75.2266 241.488 75.408C241.034 75.6346 240.536 75.7933 239.992 75.884C239.493 75.9746 238.926 76.02 238.292 76.02C236.977 76.02 235.73 75.68 234.552 75C233.418 74.2746 232.308 73.164 231.22 71.668C230.132 70.1266 229.021 68.2226 227.888 65.956C227.208 64.3693 226.482 62.8053 225.712 61.264C224.986 59.7226 224.261 58.068 223.536 56.3H219.456Z" fill="black"/>
    <path d="M176.735 76.02C173.516 76.02 171.091 75.0227 169.459 73.028C167.827 71.0333 167.011 68.0187 167.011 63.984V43.04H162.795V42.292L174.491 39.98V65.072C174.491 67.7467 174.967 69.7867 175.919 71.192C176.871 72.552 178.253 73.232 180.067 73.232C181.563 73.232 183.081 72.7107 184.623 71.668C186.164 70.58 187.615 69.1293 188.975 67.316C190.335 65.4573 191.468 63.372 192.375 61.06V43.04H188.227V42.292L199.855 39.98V72.96H204.003V73.708L192.375 76.02V64.8L191.831 64.392C189.836 68.2453 187.569 71.1467 185.031 73.096C182.492 75.0453 179.727 76.02 176.735 76.02Z" fill="black"/>
    <path d="M141.197 39.98C144.008 39.98 146.501 40.4106 148.677 41.272C150.898 42.1333 152.757 43.38 154.253 45.012C155.749 46.5986 156.882 48.5253 157.653 50.792C158.424 53.0133 158.809 55.5067 158.809 58.272C158.809 60.856 158.424 63.236 157.653 65.412C156.882 67.5427 155.749 69.424 154.253 71.056C152.757 72.6427 150.921 73.8667 148.745 74.728C146.569 75.5893 144.053 76.02 141.197 76.02C138.296 76.02 135.734 75.5893 133.513 74.728C131.337 73.8667 129.501 72.6427 128.005 71.056C126.509 69.424 125.376 67.5427 124.605 65.412C123.88 63.236 123.517 60.856 123.517 58.272C123.517 55.5067 123.925 53.0133 124.741 50.792C125.557 48.5253 126.713 46.5986 128.209 45.012C129.75 43.38 131.609 42.1333 133.785 41.272C135.961 40.4106 138.432 39.98 141.197 39.98ZM141.197 40.864C138.976 40.864 137.117 41.612 135.621 43.108C134.17 44.604 133.06 46.6666 132.289 49.296C131.564 51.9253 131.201 54.9173 131.201 58.272C131.201 60.6747 131.382 62.896 131.745 64.936C132.153 66.976 132.765 68.7666 133.581 70.308C134.442 71.8493 135.508 73.0507 136.777 73.912C138.046 74.728 139.52 75.136 141.197 75.136C142.829 75.136 144.257 74.728 145.481 73.912C146.75 73.0507 147.816 71.872 148.677 70.376C149.538 68.8347 150.173 67.044 150.581 65.004C150.989 62.9187 151.193 60.6747 151.193 58.272C151.193 55.7333 150.989 53.4213 150.581 51.336C150.173 49.2053 149.561 47.3693 148.745 45.828C147.929 44.2413 146.886 43.0173 145.617 42.156C144.348 41.2946 142.874 40.864 141.197 40.864Z" fill="black"/>
    <path d="M101.816 76.02C99.7761 76.02 97.8494 75.8387 96.0361 75.476C94.2681 75.1133 92.6814 74.5693 91.2761 73.844C89.9161 73.1187 88.8507 72.2573 88.0801 71.26C87.3094 70.2626 86.9241 69.152 86.9241 67.928C86.9241 67.0213 87.1734 66.2733 87.6721 65.684C88.2161 65.0493 88.8961 64.5733 89.7121 64.256C90.5281 63.9387 91.3894 63.78 92.2961 63.78C93.2027 63.78 94.0641 63.9387 94.8801 64.256C95.6961 64.528 96.3534 64.936 96.8521 65.48C97.3507 66.024 97.6001 66.6813 97.6001 67.452C97.6001 68.0867 97.4414 68.6533 97.1241 69.152C96.8521 69.6507 96.4214 70.1266 95.8321 70.58C95.1067 71.0786 94.6081 71.4867 94.3361 71.804C94.0641 72.1213 93.9281 72.4613 93.9281 72.824C93.9281 73.1867 94.2454 73.5493 94.8801 73.912C95.5147 74.2747 96.3987 74.592 97.5321 74.864C98.7107 75.0906 100.025 75.204 101.476 75.204C103.516 75.204 105.307 74.9547 106.848 74.456C108.389 73.912 109.591 73.1413 110.452 72.144C111.359 71.1467 111.812 69.8773 111.812 68.336C111.812 67.1573 111.449 66.092 110.724 65.14C109.999 64.188 108.797 63.2813 107.12 62.42C105.443 61.5586 103.153 60.6746 100.252 59.768C97.0334 58.68 94.4721 57.592 92.5681 56.504C90.7094 55.416 89.3721 54.26 88.5561 53.036C87.7854 51.812 87.4001 50.4746 87.4001 49.024C87.4001 46.2586 88.7601 44.06 91.4801 42.428C94.2454 40.796 97.9627 39.98 102.632 39.98C105.171 39.98 107.505 40.32 109.636 41C111.767 41.68 113.489 42.632 114.804 43.856C116.119 45.0346 116.776 46.44 116.776 48.072C116.776 48.9333 116.527 49.6587 116.028 50.248C115.529 50.792 114.872 51.2 114.056 51.472C113.285 51.744 112.469 51.88 111.608 51.88C110.928 51.88 110.248 51.812 109.568 51.676C108.933 51.4946 108.344 51.268 107.8 50.996C107.301 50.6786 106.893 50.2933 106.576 49.84C106.259 49.3413 106.1 48.7746 106.1 48.14C106.1 46.916 106.78 45.8506 108.14 44.944C108.865 44.4906 109.364 44.1053 109.636 43.788C109.908 43.4706 110.044 43.176 110.044 42.904C110.044 42.6773 109.863 42.428 109.5 42.156C109.137 41.884 108.616 41.6573 107.936 41.476C107.301 41.2493 106.576 41.0906 105.76 41C104.944 40.864 104.06 40.796 103.108 40.796C101.068 40.796 99.2547 41.0226 97.6681 41.476C96.0814 41.9293 94.8347 42.6093 93.9281 43.516C93.0214 44.3773 92.5681 45.4426 92.5681 46.712C92.5681 47.8453 92.9987 48.9333 93.8601 49.976C94.7214 50.9733 95.9907 51.9026 97.6681 52.764C99.3454 53.58 101.408 54.396 103.856 55.212C107.256 56.3906 109.931 57.5013 111.88 58.544C113.875 59.5867 115.303 60.6747 116.164 61.808C117.025 62.896 117.456 64.1653 117.456 65.616C117.456 67.2933 117.048 68.7893 116.232 70.104C115.416 71.4187 114.305 72.5067 112.9 73.368C111.495 74.2293 109.84 74.8867 107.936 75.34C106.077 75.7933 104.037 76.02 101.816 76.02Z" fill="black"/>
    <path d="M58.4913 1C61.9239 1 64.9103 1.39185 67.4504 2.17555C69.9905 2.95924 71.9814 4.08254 73.4231 5.54545C74.8648 7.00835 75.5856 8.73249 75.5856 10.7179C75.5856 12.8077 75.0707 14.7408 74.0409 16.5172C73.0798 18.2414 71.9127 19.9132 70.5397 21.5329C69.2353 23.1003 68.0682 24.6677 67.0385 26.2351C66.0773 27.8025 65.5968 29.4221 65.5968 31.094C65.5968 32.4524 66.0773 33.5757 67.0385 34.4639C67.9996 35.2999 69.2353 35.9529 70.7457 36.4232C72.256 36.8411 73.835 37.1285 75.4826 37.2852C77.1303 37.442 78.6749 37.5203 80.1166 37.5203L82.897 37.442L83 39.2445L80.1166 39.1661C78.7436 39.1661 77.1989 39.2706 75.4826 39.4796C73.835 39.6363 72.256 39.9759 70.7457 40.4984C69.2353 40.9686 67.9653 41.6739 66.9355 42.6144C65.9744 43.5548 65.4938 44.7826 65.4938 46.2978C65.4938 47.7607 66.0087 49.2236 67.0385 50.6865C68.0682 52.0971 69.2353 53.5861 70.5397 55.1535C71.9127 56.6687 73.1141 58.2622 74.1439 59.9341C75.1737 61.606 75.6886 63.4346 75.6886 65.42C75.6886 67.4576 75.0707 69.2601 73.835 70.8275C72.5993 72.4472 70.7113 73.7011 68.1712 74.5893C65.6998 75.5297 62.5074 75.9999 58.5943 75.9999C57.084 75.9999 55.5393 75.9215 53.9603 75.7648C52.3813 75.6081 50.871 75.3468 49.4293 74.9811C47.9876 74.6676 46.5802 74.2235 45.2072 73.6488C43.8342 73.1264 42.5984 72.4994 41.5 71.7679L41.5 70.6428C42.5298 71.1652 44.0401 71.8724 45.2072 72.2382C46.3743 72.6561 47.5757 72.9696 48.8114 73.1786C50.0471 73.3876 51.2486 73.4921 52.4156 73.4921C54.4752 73.4921 56.2945 73.2047 57.8734 72.63C59.5211 72.0553 60.8255 71.1149 61.7866 69.8087C62.7477 68.5025 63.2283 66.8307 63.2283 64.793C63.2283 63.8526 62.988 62.8599 62.5074 61.815C62.0955 60.7178 61.5463 59.5945 60.8598 58.4451C60.2419 57.2956 59.5897 56.1462 58.9032 54.9968C58.2167 53.8474 57.6332 52.7502 57.1526 51.7053C56.7407 50.6603 56.5347 49.6677 56.5347 48.7272C56.5347 46.8986 57.0496 45.2006 58.0794 43.6332C59.1778 42.0658 60.8598 40.8119 63.1253 39.8714C65.4595 38.8787 68.4115 38.3824 71.9814 38.3824C68.5488 38.3824 65.6654 37.9122 63.3313 36.9717C61.0658 36.0313 59.3495 34.8296 58.1824 33.3667C57.084 31.9038 56.5347 30.3887 56.5347 28.8213C56.5347 27.4106 56.8437 25.9477 57.4615 24.4326C58.1481 22.8652 58.9375 21.2978 59.83 19.7304C60.7225 18.163 61.4777 16.6217 62.0955 15.1066C62.7821 13.5392 63.1253 12.0501 63.1253 10.6395C63.1253 8.1839 62.0612 6.38139 59.933 5.23197C57.8734 4.08255 55.1617 3.50783 51.7978 3.50783C50.2874 3.50783 48.7084 3.71682 47.0608 4.13479C45.4818 4.55276 43.3536 5.46894 41.5 6.35714L41.5 5.23197C42.5984 4.55277 43.7655 3.97805 45.0012 3.50783C46.3056 2.98537 47.6787 2.54127 49.1203 2.17555C50.562 1.80982 52.038 1.52247 53.5484 1.31348C55.1274 1.10449 56.775 1 58.4913 1Z" fill="#E60E9E"/>
    <path d="M24.5087 76C21.0761 76 18.0897 75.6081 15.5496 74.8245C13.0095 74.0408 11.0186 72.9175 9.57693 71.4546C8.13524 69.9916 7.4144 68.2675 7.4144 66.2821C7.4144 64.1923 7.92928 62.2592 8.95906 60.4828C9.92018 58.7586 11.0873 57.0867 12.4603 55.4671C13.7647 53.8997 14.9318 52.3323 15.9615 50.7649C16.9227 49.1975 17.4032 47.5779 17.4032 45.906C17.4032 44.5476 16.9227 43.4243 15.9615 42.5361C15.0004 41.7001 13.7647 41.0471 12.2543 40.5768C10.744 40.1589 9.16501 39.8715 7.51737 39.7148C5.86973 39.558 4.32507 39.4797 2.88338 39.4797L0.102981 39.558L3.34921e-06 37.7555L2.88338 37.8339C4.25642 37.8339 5.80108 37.7294 7.51737 37.5204C9.16501 37.3637 10.744 37.0241 12.2543 36.5016C13.7647 36.0314 15.0347 35.3261 16.0645 34.3856C17.0256 33.4452 17.5062 32.2174 17.5062 30.7022C17.5062 29.2393 16.9913 27.7764 15.9615 26.3135C14.9318 24.9029 13.7647 23.4139 12.4603 21.8465C11.0873 20.3313 9.88586 18.7378 8.85609 17.0659C7.82631 15.394 7.31142 13.5654 7.31142 11.58C7.31142 9.54239 7.92929 7.73989 9.16502 6.17249C10.4008 4.55285 12.2887 3.29893 14.8288 2.41074C17.3003 1.4703 20.4926 1.00008 24.4057 1.00008C25.9161 1.00008 27.4607 1.07846 29.0397 1.2352C30.6187 1.39194 32.129 1.65317 33.5707 2.01889C35.0124 2.33237 36.4198 2.77647 37.7928 3.35118C39.1658 3.87365 40.4016 4.5006 41.5 5.23206L41.5 6.35722C40.4702 5.83475 38.9599 5.12756 37.7928 4.76183C36.6257 4.34386 35.4243 4.03039 34.1886 3.8214C32.9529 3.61242 31.7515 3.50792 30.5844 3.50792C28.5248 3.50792 26.7055 3.79527 25.1266 4.36999C23.4789 4.9447 22.1745 5.88514 21.2134 7.1913C20.2523 8.49746 19.7717 10.1693 19.7717 12.207C19.7717 13.1474 20.012 14.1401 20.4926 15.185C20.9045 16.2822 21.4537 17.4055 22.1402 18.5549C22.7581 19.7044 23.4103 20.8538 24.0968 22.0032C24.7833 23.1526 25.3668 24.2498 25.8474 25.2947C26.2593 26.3397 26.4653 27.3323 26.4653 28.2728C26.4653 30.1014 25.9504 31.7994 24.9206 33.3668C23.8222 34.9342 22.1402 36.1881 19.8747 37.1286C17.5405 38.1212 14.5885 38.6176 11.0186 38.6176C14.4512 38.6176 17.3346 39.0878 19.6687 40.0282C21.9342 40.9687 23.6505 42.1704 24.8176 43.6333C25.9161 45.0962 26.4653 46.6113 26.4653 48.1787C26.4653 49.5894 26.1563 51.0523 25.5385 52.5674C24.8519 54.1348 24.0625 55.7022 23.17 57.2696C22.2775 58.837 21.5223 60.3783 20.9045 61.8934C20.218 63.4608 19.8747 64.9499 19.8747 66.3605C19.8747 68.8161 20.9388 70.6186 23.067 71.768C25.1266 72.9175 27.8383 73.4922 31.2022 73.4922C32.7126 73.4922 34.2916 73.2832 35.9392 72.8652C37.5182 72.4472 39.6464 71.5311 41.5 70.6429L41.5 71.768C40.4016 72.4472 39.2345 73.0219 37.9988 73.4922C36.6944 74.0146 35.3213 74.4587 33.8797 74.8245C32.438 75.1902 30.962 75.4775 29.4516 75.6865C27.8726 75.8955 26.225 76 24.5087 76Z" fill="#E60E9E"/>
    <path d="M41.3426 12.5C43.7181 12.5 45.6786 12.9715 47.2241 13.9143C48.7696 14.8572 49.9288 16.1143 50.7015 17.6858C51.4743 19.2572 51.8607 21.0286 51.8607 23H35.5898V22.5715L46.2796 22.0143C46.2796 20.1 46.1079 18.4715 45.7645 17.1286C45.421 15.7858 44.8772 14.7715 44.1331 14.0858C43.4176 13.3715 42.4731 13.0143 41.2996 13.0143C40.1548 13.0143 39.1531 13.3858 38.2945 14.1286C37.4645 14.8715 36.8205 16 36.3626 17.5143C35.9333 19 35.7186 20.9143 35.7186 23.2572C35.7186 24.5429 35.876 25.7857 36.1908 26.9857C36.5343 28.1572 37.0208 29.2286 37.6505 30.2C38.3088 31.1429 39.1102 31.9 40.0546 32.4715C40.9991 33.0143 42.101 33.2857 43.3603 33.2857C44.1331 33.2857 44.9058 33.1715 45.6786 32.9429C46.4514 32.7143 47.1812 32.3857 47.8681 31.9572C48.555 31.5286 49.1846 31.0143 49.7571 30.4143C50.3295 29.7857 50.8017 29.0572 51.1738 28.2286L51.646 28.6572C50.9877 30 50.2293 31.1 49.3707 31.9572C48.5407 32.8143 47.6391 33.4857 46.666 33.9715C45.6929 34.4286 44.7055 34.7429 43.7038 34.9143C42.7021 35.1143 41.7146 35.2143 40.7415 35.2143C38.9671 35.2143 37.3929 34.9143 36.0191 34.3143C34.6453 33.7143 33.4719 32.9 32.4988 31.8715C31.5543 30.8143 30.8245 29.6286 30.3093 28.3143C29.8227 26.9715 29.5795 25.5857 29.5795 24.1572C29.5795 22.3572 29.8657 20.7429 30.4381 19.3143C31.0391 17.8858 31.8548 16.6715 32.8852 15.6715C33.9441 14.6429 35.1891 13.8572 36.6202 13.3143C38.0512 12.7715 39.6253 12.5 41.3426 12.5Z" fill="#E60E9E"/>
    <path d="M42.101 64.5C40.7844 64.5 39.5394 64.3714 38.366 64.1143C37.1925 63.8857 36.1479 63.5571 35.232 63.1286C34.3448 62.6714 33.6436 62.1286 33.1284 61.5C32.6132 60.8429 32.3557 60.1 32.3557 59.2714C32.3557 58.6429 32.5417 58.1286 32.9138 57.7286C33.2858 57.3286 33.7581 57.0286 34.3305 56.8286C34.9315 56.6 35.5325 56.4857 36.1336 56.4857C36.7919 56.4857 37.3929 56.5857 37.9367 56.7857C38.5091 56.9857 38.967 57.2714 39.3105 57.6429C39.6539 58.0143 39.8257 58.4857 39.8257 59.0571C39.8257 59.4571 39.7398 59.8286 39.5681 60.1714C39.3963 60.4857 39.1244 60.8 38.7524 61.1143C38.2944 61.4571 37.9796 61.7429 37.8079 61.9714C37.6648 62.1714 37.5932 62.4 37.5932 62.6571C37.5932 62.8571 37.765 63.0714 38.1084 63.3C38.4519 63.5 38.9384 63.6714 39.5681 63.8143C40.1977 63.9571 40.9419 64.0286 41.8005 64.0286C42.9739 64.0286 44.0186 63.8857 44.9344 63.6C45.8503 63.3143 46.5658 62.8857 47.081 62.3143C47.6248 61.7143 47.8967 60.9571 47.8967 60.0429C47.8967 59.3 47.6677 58.6286 47.2098 58.0286C46.7805 57.4286 46.0507 56.8571 45.0203 56.3143C43.99 55.7714 42.5732 55.2 40.7701 54.6C38.7381 53.8857 37.121 53.1714 35.9189 52.4572C34.7455 51.7429 33.9012 51 33.386 50.2286C32.8994 49.4286 32.6562 48.5714 32.6562 47.6572C32.6562 45.8572 33.5434 44.4286 35.3179 43.3714C37.121 42.3143 39.5681 41.7857 42.6591 41.7857C44.3191 41.7857 45.8503 42 47.2527 42.4286C48.6551 42.8572 49.7857 43.4572 50.6443 44.2286C51.5029 44.9714 51.9322 45.8714 51.9322 46.9286C51.9322 47.5 51.7605 47.9857 51.417 48.3857C51.0736 48.7572 50.6157 49.0429 50.0432 49.2429C49.4994 49.4429 48.927 49.5429 48.326 49.5429C47.8681 49.5429 47.4101 49.4857 46.9522 49.3714C46.4943 49.2572 46.0793 49.1 45.7072 48.9C45.3351 48.6714 45.0346 48.4 44.8057 48.0857C44.5767 47.7429 44.4622 47.3714 44.4622 46.9714C44.4622 46.1429 44.8915 45.4286 45.7501 44.8286C46.2081 44.4857 46.5229 44.2143 46.6946 44.0143C46.8663 43.8143 46.9522 43.6143 46.9522 43.4143C46.9522 43.2714 46.852 43.1286 46.6517 42.9857C46.48 42.8429 46.2081 42.7286 45.836 42.6429C45.4925 42.5286 45.0775 42.4429 44.591 42.3857C44.1044 42.3 43.575 42.2572 43.0025 42.2572C41.8291 42.2572 40.7701 42.3857 39.8257 42.6429C38.8812 42.9 38.1227 43.2857 37.5503 43.8C37.0065 44.2857 36.7346 44.9143 36.7346 45.6857C36.7346 46.4286 37.0208 47.1143 37.5932 47.7429C38.1657 48.3429 38.967 48.9143 39.9974 49.4572C41.0563 50 42.3157 50.5286 43.7753 51.0429C45.9219 51.8429 47.6105 52.5857 48.8412 53.2714C50.1005 53.9286 51.002 54.6143 51.5458 55.3286C52.0896 56.0429 52.3615 56.8429 52.3615 57.7286C52.3615 58.8714 52.0753 59.8571 51.5029 60.6857C50.9591 61.5143 50.215 62.2143 49.2705 62.7857C48.326 63.3571 47.2384 63.7857 46.0077 64.0714C44.777 64.3571 43.4748 64.5 42.101 64.5Z" fill="#E60E9E"/>
</svg>
