<svg width="83" height="75" viewBox="0 0 83 75" fill="none" xmlns="http://www.w3.org/2000/svg">
<path d="M58.4913 0C61.9239 0 64.9103 0.391849 67.4504 1.17555C69.9905 1.95924 71.9814 3.08254 73.4231 4.54545C74.8648 6.00835 75.5856 7.73249 75.5856 9.71786C75.5856 11.8077 75.0707 13.7408 74.0409 15.5172C73.0798 17.2414 71.9127 18.9132 70.5397 20.5329C69.2353 22.1003 68.0682 23.6677 67.0385 25.2351C66.0773 26.8025 65.5968 28.4221 65.5968 30.094C65.5968 31.4524 66.0773 32.5757 67.0385 33.4639C67.9996 34.2999 69.2353 34.9529 70.7457 35.4232C72.256 35.8411 73.835 36.1285 75.4826 36.2852C77.1303 36.442 78.6749 36.5203 80.1166 36.5203L82.897 36.442L83 38.2445L80.1166 38.1661C78.7436 38.1661 77.1989 38.2706 75.4826 38.4796C73.835 38.6363 72.256 38.9759 70.7457 39.4984C69.2353 39.9686 67.9653 40.6739 66.9355 41.6144C65.9744 42.5548 65.4938 43.7826 65.4938 45.2978C65.4938 46.7607 66.0087 48.2236 67.0385 49.6865C68.0682 51.0971 69.2353 52.5861 70.5397 54.1535C71.9127 55.6687 73.1141 57.2622 74.1439 58.9341C75.1737 60.606 75.6886 62.4346 75.6886 64.42C75.6886 66.4576 75.0707 68.2601 73.835 69.8275C72.5993 71.4472 70.7113 72.7011 68.1712 73.5893C65.6998 74.5297 62.5074 74.9999 58.5943 74.9999C57.084 74.9999 55.5393 74.9215 53.9603 74.7648C52.3813 74.6081 50.871 74.3468 49.4293 73.9811C47.9876 73.6676 46.5802 73.2235 45.2072 72.6488C43.8342 72.1264 42.5984 71.4994 41.5 70.7679L41.5 69.6428C42.5298 70.1652 44.0401 70.8724 45.2072 71.2382C46.3743 71.6561 47.5757 71.9696 48.8114 72.1786C50.0471 72.3876 51.2486 72.4921 52.4156 72.4921C54.4752 72.4921 56.2945 72.2047 57.8734 71.63C59.5211 71.0553 60.8255 70.1149 61.7866 68.8087C62.7477 67.5025 63.2283 65.8307 63.2283 63.793C63.2283 62.8526 62.988 61.8599 62.5074 60.815C62.0955 59.7178 61.5463 58.5945 60.8598 57.4451C60.2419 56.2956 59.5897 55.1462 58.9032 53.9968C58.2167 52.8474 57.6332 51.7502 57.1526 50.7053C56.7407 49.6603 56.5347 48.6677 56.5347 47.7272C56.5347 45.8986 57.0496 44.2006 58.0794 42.6332C59.1778 41.0658 60.8598 39.8119 63.1253 38.8714C65.4595 37.8787 68.4115 37.3824 71.9814 37.3824C68.5488 37.3824 65.6654 36.9122 63.3313 35.9717C61.0658 35.0313 59.3495 33.8296 58.1824 32.3667C57.084 30.9038 56.5347 29.3887 56.5347 27.8213C56.5347 26.4106 56.8437 24.9477 57.4615 23.4326C58.1481 21.8652 58.9375 20.2978 59.83 18.7304C60.7225 17.163 61.4777 15.6217 62.0955 14.1066C62.7821 12.5392 63.1253 11.0501 63.1253 9.63949C63.1253 7.1839 62.0612 5.38139 59.933 4.23197C57.8734 3.08255 55.1617 2.50783 51.7978 2.50783C50.2874 2.50783 48.7084 2.71682 47.0608 3.13479C45.4818 3.55276 43.3536 4.46894 41.5 5.35714L41.5 4.23197C42.5984 3.55277 43.7655 2.97805 45.0012 2.50783C46.3056 1.98537 47.6787 1.54127 49.1203 1.17555C50.562 0.809822 52.038 0.522466 53.5484 0.31348C55.1274 0.104493 56.775 0 58.4913 0Z" fill="#E60E9E"/>
<path d="M24.5087 75C21.0761 75 18.0897 74.6081 15.5496 73.8245C13.0095 73.0408 11.0186 71.9175 9.57693 70.4546C8.13524 68.9916 7.4144 67.2675 7.4144 65.2821C7.4144 63.1923 7.92928 61.2592 8.95906 59.4828C9.92018 57.7586 11.0873 56.0867 12.4603 54.4671C13.7647 52.8997 14.9318 51.3323 15.9615 49.7649C16.9227 48.1975 17.4032 46.5779 17.4032 44.906C17.4032 43.5476 16.9227 42.4243 15.9615 41.5361C15.0004 40.7001 13.7647 40.0471 12.2543 39.5768C10.744 39.1589 9.16501 38.8715 7.51737 38.7148C5.86973 38.558 4.32507 38.4797 2.88338 38.4797L0.102981 38.558L3.34921e-06 36.7555L2.88338 36.8339C4.25642 36.8339 5.80108 36.7294 7.51737 36.5204C9.16501 36.3637 10.744 36.0241 12.2543 35.5016C13.7647 35.0314 15.0347 34.3261 16.0645 33.3856C17.0256 32.4452 17.5062 31.2174 17.5062 29.7022C17.5062 28.2393 16.9913 26.7764 15.9615 25.3135C14.9318 23.9029 13.7647 22.4139 12.4603 20.8465C11.0873 19.3313 9.88586 17.7378 8.85609 16.0659C7.82631 14.394 7.31142 12.5654 7.31142 10.58C7.31142 8.54239 7.92929 6.73989 9.16502 5.17249C10.4008 3.55285 12.2887 2.29893 14.8288 1.41074C17.3003 0.470304 20.4926 8.209e-05 24.4057 8.24315e-05C25.9161 8.25633e-05 27.4607 0.0784595 29.0397 0.235198C30.6187 0.391936 32.129 0.653167 33.5707 1.01889C35.0124 1.33237 36.4198 1.77647 37.7928 2.35118C39.1658 2.87365 40.4016 3.5006 41.5 4.23206L41.5 5.35722C40.4702 4.83475 38.9599 4.12756 37.7928 3.76183C36.6257 3.34386 35.4243 3.03039 34.1886 2.8214C32.9529 2.61242 31.7515 2.50792 30.5844 2.50792C28.5248 2.50792 26.7055 2.79527 25.1266 3.36999C23.4789 3.9447 22.1745 4.88514 21.2134 6.1913C20.2523 7.49746 19.7717 9.16935 19.7717 11.207C19.7717 12.1474 20.012 13.1401 20.4926 14.185C20.9045 15.2822 21.4537 16.4055 22.1402 17.5549C22.7581 18.7044 23.4103 19.8538 24.0968 21.0032C24.7833 22.1526 25.3668 23.2498 25.8474 24.2947C26.2593 25.3397 26.4653 26.3323 26.4653 27.2728C26.4653 29.1014 25.9504 30.7994 24.9206 32.3668C23.8222 33.9342 22.1402 35.1881 19.8747 36.1286C17.5405 37.1212 14.5885 37.6176 11.0186 37.6176C14.4512 37.6176 17.3346 38.0878 19.6687 39.0282C21.9342 39.9687 23.6505 41.1704 24.8176 42.6333C25.9161 44.0962 26.4653 45.6113 26.4653 47.1787C26.4653 48.5894 26.1563 50.0523 25.5385 51.5674C24.8519 53.1348 24.0625 54.7022 23.17 56.2696C22.2775 57.837 21.5223 59.3783 20.9045 60.8934C20.218 62.4608 19.8747 63.9499 19.8747 65.3605C19.8747 67.8161 20.9388 69.6186 23.067 70.768C25.1266 71.9175 27.8383 72.4922 31.2022 72.4922C32.7126 72.4922 34.2916 72.2832 35.9392 71.8652C37.5182 71.4472 39.6464 70.5311 41.5 69.6429L41.5 70.768C40.4016 71.4472 39.2345 72.0219 37.9988 72.4922C36.6944 73.0146 35.3213 73.4587 33.8797 73.8245C32.438 74.1902 30.962 74.4775 29.4516 74.6865C27.8726 74.8955 26.225 75 24.5087 75Z" fill="#E60E9E"/>
<path d="M41.3426 11.5C43.7181 11.5 45.6786 11.9715 47.2241 12.9143C48.7696 13.8572 49.9288 15.1143 50.7015 16.6858C51.4743 18.2572 51.8607 20.0286 51.8607 22H35.5898V21.5715L46.2796 21.0143C46.2796 19.1 46.1079 17.4715 45.7645 16.1286C45.421 14.7858 44.8772 13.7715 44.1331 13.0858C43.4176 12.3715 42.4731 12.0143 41.2996 12.0143C40.1548 12.0143 39.1531 12.3858 38.2945 13.1286C37.4645 13.8715 36.8205 15 36.3626 16.5143C35.9333 18 35.7186 19.9143 35.7186 22.2572C35.7186 23.5429 35.876 24.7857 36.1908 25.9857C36.5343 27.1572 37.0208 28.2286 37.6505 29.2C38.3088 30.1429 39.1102 30.9 40.0546 31.4715C40.9991 32.0143 42.101 32.2857 43.3603 32.2857C44.1331 32.2857 44.9058 32.1715 45.6786 31.9429C46.4514 31.7143 47.1812 31.3857 47.8681 30.9572C48.555 30.5286 49.1846 30.0143 49.7571 29.4143C50.3295 28.7857 50.8017 28.0572 51.1738 27.2286L51.646 27.6572C50.9877 29 50.2293 30.1 49.3707 30.9572C48.5407 31.8143 47.6391 32.4857 46.666 32.9715C45.6929 33.4286 44.7055 33.7429 43.7038 33.9143C42.7021 34.1143 41.7146 34.2143 40.7415 34.2143C38.9671 34.2143 37.3929 33.9143 36.0191 33.3143C34.6453 32.7143 33.4719 31.9 32.4988 30.8715C31.5543 29.8143 30.8245 28.6286 30.3093 27.3143C29.8227 25.9715 29.5795 24.5857 29.5795 23.1572C29.5795 21.3572 29.8657 19.7429 30.4381 18.3143C31.0391 16.8858 31.8548 15.6715 32.8852 14.6715C33.9441 13.6429 35.1891 12.8572 36.6202 12.3143C38.0512 11.7715 39.6253 11.5 41.3426 11.5Z" fill="#E60E9E"/>
<path d="M42.101 63.5C40.7844 63.5 39.5394 63.3714 38.366 63.1143C37.1925 62.8857 36.1479 62.5571 35.232 62.1286C34.3448 61.6714 33.6436 61.1286 33.1284 60.5C32.6132 59.8429 32.3557 59.1 32.3557 58.2714C32.3557 57.6429 32.5417 57.1286 32.9138 56.7286C33.2858 56.3286 33.7581 56.0286 34.3305 55.8286C34.9315 55.6 35.5325 55.4857 36.1336 55.4857C36.7919 55.4857 37.3929 55.5857 37.9367 55.7857C38.5091 55.9857 38.967 56.2714 39.3105 56.6429C39.6539 57.0143 39.8257 57.4857 39.8257 58.0571C39.8257 58.4571 39.7398 58.8286 39.5681 59.1714C39.3963 59.4857 39.1244 59.8 38.7524 60.1143C38.2944 60.4571 37.9796 60.7429 37.8079 60.9714C37.6648 61.1714 37.5932 61.4 37.5932 61.6571C37.5932 61.8571 37.765 62.0714 38.1084 62.3C38.4519 62.5 38.9384 62.6714 39.5681 62.8143C40.1977 62.9571 40.9419 63.0286 41.8005 63.0286C42.9739 63.0286 44.0186 62.8857 44.9344 62.6C45.8503 62.3143 46.5658 61.8857 47.081 61.3143C47.6248 60.7143 47.8967 59.9571 47.8967 59.0429C47.8967 58.3 47.6677 57.6286 47.2098 57.0286C46.7805 56.4286 46.0507 55.8571 45.0203 55.3143C43.99 54.7714 42.5732 54.2 40.7701 53.6C38.7381 52.8857 37.121 52.1714 35.9189 51.4572C34.7455 50.7429 33.9012 50 33.386 49.2286C32.8994 48.4286 32.6562 47.5714 32.6562 46.6572C32.6562 44.8572 33.5434 43.4286 35.3179 42.3714C37.121 41.3143 39.5681 40.7857 42.6591 40.7857C44.3191 40.7857 45.8503 41 47.2527 41.4286C48.6551 41.8572 49.7857 42.4572 50.6443 43.2286C51.5029 43.9714 51.9322 44.8714 51.9322 45.9286C51.9322 46.5 51.7605 46.9857 51.417 47.3857C51.0736 47.7572 50.6157 48.0429 50.0432 48.2429C49.4994 48.4429 48.927 48.5429 48.326 48.5429C47.8681 48.5429 47.4101 48.4857 46.9522 48.3714C46.4943 48.2572 46.0793 48.1 45.7072 47.9C45.3351 47.6714 45.0346 47.4 44.8057 47.0857C44.5767 46.7429 44.4622 46.3714 44.4622 45.9714C44.4622 45.1429 44.8915 44.4286 45.7501 43.8286C46.2081 43.4857 46.5229 43.2143 46.6946 43.0143C46.8663 42.8143 46.9522 42.6143 46.9522 42.4143C46.9522 42.2714 46.852 42.1286 46.6517 41.9857C46.48 41.8429 46.2081 41.7286 45.836 41.6429C45.4925 41.5286 45.0775 41.4429 44.591 41.3857C44.1044 41.3 43.575 41.2572 43.0025 41.2572C41.8291 41.2572 40.7701 41.3857 39.8257 41.6429C38.8812 41.9 38.1227 42.2857 37.5503 42.8C37.0065 43.2857 36.7346 43.9143 36.7346 44.6857C36.7346 45.4286 37.0208 46.1143 37.5932 46.7429C38.1657 47.3429 38.967 47.9143 39.9974 48.4572C41.0563 49 42.3157 49.5286 43.7753 50.0429C45.9219 50.8429 47.6105 51.5857 48.8412 52.2714C50.1005 52.9286 51.002 53.6143 51.5458 54.3286C52.0896 55.0429 52.3615 55.8429 52.3615 56.7286C52.3615 57.8714 52.0753 58.8571 51.5029 59.6857C50.9591 60.5143 50.215 61.2143 49.2705 61.7857C48.326 62.3571 47.2384 62.7857 46.0077 63.0714C44.777 63.3571 43.4748 63.5 42.101 63.5Z" fill="#E60E9E"/>
</svg>
