<svg width="24" height="24" viewBox="0 0 24 24" fill="none" xmlns="http://www.w3.org/2000/svg">
    <path d="M21.5349 14.938C20.7237 17.4857 18.9353 19.6078 16.5619 20.839C14.1768 22.0798 11.4007 22.3376 8.82793 21.557C9.8048 20.0628 10.4619 18.3826 10.7579 16.622L11.1989 16.963C11.6036 17.2747 12.0743 17.4896 12.5749 17.5912C13.0755 17.6928 13.5928 17.6784 14.0869 17.549C14.7262 17.4222 15.3333 17.1678 15.8719 16.801C16.4081 16.4353 16.8643 15.9645 17.2129 15.417C17.7683 14.6295 18.144 13.7296 18.3133 12.781C18.4826 11.8323 18.4416 10.8581 18.1929 9.92704C17.932 8.87813 17.3699 7.92846 16.5759 7.19504C15.7768 6.4576 14.7815 5.9669 13.7099 5.78204C12.7843 5.55077 11.8221 5.50514 10.8788 5.64777C9.93549 5.7904 9.02977 6.11847 8.21393 6.61304C7.45526 7.06277 6.8119 7.68319 6.33493 8.42504C5.8605 9.16381 5.56626 10.0037 5.47593 10.877C5.26942 12.2098 5.59873 13.5702 6.39193 14.661C6.66408 15.0537 7.03626 15.3665 7.46993 15.567C7.72893 15.695 7.85793 15.481 7.94393 15.215C8.12793 14.693 8.26793 14.426 8.05193 14C7.65761 13.3985 7.42314 12.7063 7.37065 11.9889C7.31816 11.2715 7.44938 10.5526 7.75193 9.90004C8.05642 9.24604 8.52154 8.67978 9.10393 8.25404C9.68937 7.82567 10.3729 7.55096 11.0919 7.45504C12.0895 7.28414 13.1156 7.43362 14.0229 7.88204C14.6268 8.17944 15.1395 8.63403 15.5069 9.19804C15.8729 9.76104 16.0789 10.411 16.1029 11.079C16.2518 12.363 15.9511 13.6589 15.2519 14.746C15.0273 15.1255 14.7144 15.4452 14.3399 15.678C13.9639 15.9119 13.5373 16.0524 13.0959 16.088C12.8602 16.1182 12.6207 16.0908 12.3979 16.008C12.1752 15.9253 11.9758 15.7898 11.8169 15.613C11.6602 15.4368 11.5493 15.2245 11.4942 14.9951C11.439 14.7657 11.4414 14.5263 11.5009 14.298C11.7059 13.456 11.9859 12.625 12.2009 11.772C12.2939 11.425 12.3269 11.064 12.2989 10.706C12.2871 10.4885 12.2199 10.2776 12.1037 10.0933C11.9875 9.90902 11.8261 9.75747 11.6349 9.65304C11.4434 9.54653 11.2282 9.48956 11.0091 9.48729C10.7899 9.48502 10.5737 9.53752 10.3799 9.64004C10.0739 9.79204 9.81393 10.02 9.62393 10.303C9.43493 10.585 9.32393 10.912 9.30193 11.25C9.17562 11.9047 9.22391 12.581 9.44193 13.211C9.48526 13.3606 9.48526 13.5194 9.44193 13.669C9.06493 15.289 8.63393 16.867 8.36493 18.519C8.27493 19.29 8.24893 20.068 8.28893 20.843V21.343C5.93924 20.3888 4.03372 18.5868 2.94993 16.294C1.8743 14.0117 1.70594 11.4059 2.47893 9.00404C3.25774 6.59336 4.91623 4.56461 7.12393 3.32204C9.34324 2.07114 11.9485 1.69046 14.4329 2.25404C15.7589 2.59604 17.0019 3.20104 18.0849 4.03204C19.1659 4.86116 20.0669 5.9016 20.7329 7.09004C21.3972 8.27341 21.8112 9.58069 21.9491 10.9307C22.0871 12.2808 21.9461 13.6448 21.5349 14.938Z" fill="black"/>
</svg>
